<svg width="24px" height="24px" viewBox="0 0 24 24" fill="none" xmlns="http://www.w3.org/2000/svg">
<path fill-rule="evenodd" clip-rule="evenodd" d="M5.99976 2C4.89519 2 3.99976 2.89543 3.99976 4V20C3.99976 21.1046 4.89519 22 5.99976 22H17.9998C19.1043 22 19.9998 21.1046 19.9998 20V4C19.9998 2.89543 19.1043 2 17.9998 2H5.99976ZM12 10.0001C13.6569 10.0001 15 8.65698 15 7.00012C15 5.34327 13.6569 4.00012 12 4.00012C10.3431 4.00012 9 5.34327 9 7.00012C9 8.65698 10.3431 10.0001 12 10.0001ZM18 12.0001V14.0001H6V12.0001H18ZM13 15.0001H6V17.0001H13V15.0001Z" fill="#1E1E1E"/>
</svg>
