<svg xmlns="http://www.w3.org/2000/svg" width="256" height="256"><path fill="#1976D2" fill-opacity=".016" fill-rule="evenodd" d="M0 128.004v128.004l128.25-.254 128.25-.254.254-127.75L257.008 0H0zm.485.496c0 70.4.119 99.053.265 63.672.146-35.38.146-92.98 0-128C.604 29.153.485 58.1.485 128.5"/><path fill="#1976D2" fill-opacity=".191" fill-rule="evenodd" d="M61.116 12.977C44.539 17.469 30.329 29.148 23.153 44.18 18.496 53.933 17 60.332 17 70.5s1.496 16.567 6.153 26.32c10.11 21.176 32.794 34.403 56.339 32.851 15.033-.991 26.271-5.776 36.885-15.705C121.997 108.709 129 99.664 129 97.662c0-.364-2.76-.662-6.134-.662h-6.134l-7.22 6.858C99.223 113.632 88.767 118 75.661 118c-20.577 0-39.841-15.097-45.3-35.5-4.237-15.838.709-33.813 12.505-45.45C55.117 24.964 71.475 20.384 87.54 24.543c9.115 2.36 14.149 5.199 21.487 12.122L115.743 43h13.37l-1.806-3.18c-3.07-5.402-13.828-16.149-19.718-19.697-14.152-8.526-31.526-11.197-46.473-7.146M164 66.5V122h11V79h52V67h-52V23h63V11h-74zM93 73v6h51v34.822c0 38.778-.25 40.605-6.557 47.973-4.817 5.628-11.341 8.584-18.896 8.562-12.317-.035-21.899-8.709-24.976-22.607-.582-2.626-.88-2.75-6.59-2.75-6.834 0-6.87.07-4.556 8.764 3.016 11.329 10.713 20.517 21.424 25.574 5.839 2.757 7.688 3.139 15.151 3.129 7.087-.009 9.451-.452 14.218-2.669 11.527-5.359 20.393-16.914 22.777-29.684.564-3.023 1.005-22.444 1.005-44.25V67H93zM40.304 197.956c-2.109 1.286-3.587 3.255-4.347 5.794-2.401 8.012 3.856 15.075 12.343 13.937 4.549-.611 7.713-3.074 6.065-4.722-.733-.733-1.436-.584-2.33.493-.791.952-2.926 1.542-5.585 1.542-3.46 0-4.712-.517-6.377-2.635-4.605-5.853-.806-13.365 6.759-13.365 2.267 0 4.449.633 5.168 1.5 1.587 1.912 3 1.924 3 .026 0-1.89-5.074-4.527-8.7-4.522-1.54.002-4.238.88-5.996 1.952m82.39-1.317c-.933.934.194 2.361 1.865 2.361.793 0 1.441-.675 1.441-1.5 0-1.506-2.111-2.056-3.306-.861M168 199.941c0 3.885-.035 3.922-2.507 2.64-4.939-2.563-9.9.206-11.098 6.195-.524 2.621-.124 3.649 2.411 6.184 3.162 3.162 5.964 3.769 9.26 2.005 1.333-.714 1.934-.714 1.934 0 0 .569.45 1.035 1 1.035.606 0 1-4.333 1-11s-.394-11-1-11c-.55 0-1 1.773-1 3.941M200 207c0 6.667.394 11 1 11s1-4.333 1-11-.394-11-1-11-1 4.333-1 11m-136.97-4.714C55.391 206.13 57.669 218 66.045 218c6.781 0 10.319-8.288 5.705-13.363-2.885-3.174-5.619-3.911-8.72-2.351m20.651-.633c-.359.358-2.028.613-3.708.565l-3.055-.087.291 7.442c.333 8.515 2.137 10.055 2.601 2.22.366-6.181 1.59-8.002 5.104-7.594 2.411.281 2.62.724 3.086 6.568.641 8.032 2.504 8.117 2.486.113-.012-5.163-.368-6.366-2.361-7.98-2.508-2.031-3.408-2.284-4.444-1.247m11.295 1.371c-3.031 3.031-2.655 3.934 3.486 8.349 1.658 1.192 1.758 1.657.645 2.998-1.016 1.225-1.769 1.345-3.298.527-2.649-1.418-3.606-.266-1.515 1.824 2.464 2.464 7.098.665 7.515-2.917.234-2.004-.442-3.213-2.75-4.919-4.11-3.039-4.099-5.344.021-4.52 3.591.718 3.663-1.177.095-2.497-1.645-.608-2.736-.308-4.199 1.155m14.489-1.073c-2.821 1.145-4.346 3.203-5.076 6.854-.517 2.587-.107 3.63 2.417 6.155 3.363 3.363 6.6 3.845 9.971 1.483 2.259-1.581 3.046-4.443 1.223-4.443-.55 0-1 .461-1 1.025 0 .563-1.186 1.475-2.635 2.026-2.997 1.14-7.365-.98-7.365-3.574 0-1.151 1.434-1.477 6.5-1.477 5.608 0 6.5-.249 6.5-1.811 0-1.895-3.439-6.189-4.957-6.189-.484 0-1.479-.197-2.211-.437-.733-.241-2.248-.066-3.367.388m23.565.335c-5.494 2.765-6.386 9.441-1.829 13.686 4.83 4.5 12.799.607 12.799-6.252 0-5.654-6.182-9.843-10.97-7.434m44.97.003c-3.194 1.622-5.246 5.884-4.419 9.178.788 3.139 4.902 6.533 7.919 6.533 3.116 0 7.969-3.931 6.575-5.325-.757-.757-1.455-.537-2.399.754-1.724 2.357-6.626 2.36-8.348.005-2.211-3.024-1.594-3.434 5.172-3.434 5.833 0 6.5-.205 6.5-2 0-2.036-3.25-6-4.918-6-.505 0-1.518-.22-2.25-.49-.733-.269-2.457.081-3.832.779m32.357-.297c-5.441 2.195-6.996 9.459-2.902 13.553 2.673 2.674 5.486 3.092 8.813 1.312 1.606-.86 2.232-.858 2.52.006.21.632.794.895 1.297.584C221.343 216.67 221.262 202 220 202c-.55 0-1 .423-1 .941 0 .517-1.238.295-2.75-.494-3.122-1.629-3.007-1.62-5.893-.455M123 211.417c0 7.852-.271 9.583-1.5 9.583-.825 0-1.5.402-1.5.893 0 1.376 2.517 2.023 4.091 1.053 1.9-1.173 2.046-20.053.159-20.69-.942-.319-1.25 1.935-1.25 9.161m-60.429-5.846c-1.859 1.86-2.07 6.53-.371 8.229 1.677 1.677 6.308 1.498 7.803-.303 4.32-5.206-2.682-12.675-7.432-7.926m45.813.179c-1.677 1.668-1.535 1.764 3.036 2.059 5.456.352 6.4-.116 4.6-2.285-1.694-2.041-5.469-1.93-7.636.226m24.242-.233c-1.906 1.906-2.145 6.564-.426 8.283 2.163 2.163 6.609 1.42 8.467-1.415 1.535-2.343 1.56-2.89.242-5.25-1.754-3.14-5.943-3.958-8.283-1.618m26.029.312c-3.385 3.74-1.066 9.421 3.845 9.421 5.001 0 7.386-6.233 3.671-9.595-2.399-2.171-5.458-2.1-7.516.174M177.5 206c-1.788 1.975-1.747 2 3.345 2 5.226 0 6.121-.634 3.955-2.8-1.818-1.818-5.274-1.439-7.3.8m32.26-.75c-3.014 2.323-2.634 7.132.74 9.342 2.29 1.5 2.704 1.504 4.924.05 3.307-2.167 4.097-5.197 2.136-8.191-1.756-2.679-5.194-3.209-7.8-1.201M45 227.035c0 3.68-.17 3.944-1.934 3-3.554-1.902-7.77-1.227-9.993 1.6-5.602 7.122 2.06 16.575 9.993 12.33 1.333-.714 1.934-.714 1.934 0 0 .569.45 1.035 1 1.035.606 0 1-4.333 1-11s-.394-11-1-11c-.55 0-1 1.816-1 4.035m5.446-2.948c-.369.598-.28 1.479.199 1.958 1.183 1.183 3.786-.538 2.924-1.933-.873-1.414-2.258-1.425-3.123-.025M96 226c0 2-.5 3-1.5 3-.825 0-1.5.45-1.5 1s.675 1 1.5 1c1.19 0 1.5 1.444 1.5 7 0 4 .429 7 1 7s1-3 1-7c0-5.556.31-7 1.5-7 .825 0 1.5-.45 1.5-1s-.675-1-1.5-1c-1 0-1.5-1-1.5-3 0-1.65-.45-3-1-3s-1 1.35-1 3m106 1.035c0 3.68-.17 3.944-1.934 3-3.554-1.902-7.77-1.227-9.993 1.6-2.806 3.566-2.655 7.874.382 10.91 2.673 2.674 7.29 3.261 9.47 1.205 1.06-1 1.417-1 1.783 0 1.392 3.795 2.292-.034 2.292-9.75 0-6.667-.394-11-1-11-.55 0-1 1.816-1 4.035M254 234c0 6.086.414 11 .927 11 1.38 0 1.606-2.265 1.254-12.614-.175-5.162-.737-9.386-1.25-9.386-.518 0-.931 4.874-.931 11M8 232.378c0 9.429-1.172 11.671-5.025 9.608-1.865-.997-2.107-.906-1.806.681.418 2.201 5.271 3.043 7.391 1.283C10.274 242.528 10.682 224 9 224c-.587 0-1 3.459-1 8.378m149 2.122c0 6.333.397 10.5 1 10.5.55 0 1-2.224 1-4.943v-4.942l4.25-.308c2.338-.169 4.25-.757 4.25-1.307 0-.55-1.912-1.138-4.25-1.307-3.967-.288-4.25-.504-4.25-3.25 0-2.821.186-2.943 4.5-2.943 2.475 0 4.5-.45 4.5-1s-2.475-1-5.5-1H157zm-142.811 1.121c.462 7.26 2 9.379 6.811 9.379s6.349-2.119 6.811-9.379c.357-5.605.174-6.621-1.195-6.621-1.307 0-1.616 1.138-1.616 5.965 0 4.941-.343 6.148-2 7.035-1.421.76-2.579.76-4 0-1.657-.887-2-2.094-2-7.035 0-4.827-.309-5.965-1.616-5.965-1.369 0-1.552 1.016-1.195 6.621M51 237c0 4.667.417 8 1 8s1-3.333 1-8-.417-8-1-8-1 3.333-1 8m7.455-5.545c-6.76 6.759 2.019 17.108 10.611 12.51 1.064-.57 1.934-1.695 1.934-2.5 0-1.855-.501-1.838-3.486.118-2.919 1.913-5.993 1.142-8.067-2.024-3.297-5.031 2.406-10.314 8.256-7.648 3.184 1.45 4.467.418 1.854-1.493-3.087-2.257-8.295-1.771-11.102 1.037m18.847-.954c-2.985 2.091-3.793 6.648-1.847 10.412 1.844 3.566 5.643 4.866 9.721 3.327 1.592-.601 2.824-.668 2.824-.153 0 .502.45.913 1 .913.583 0 1-3.333 1-8s-.417-8-1-8c-.55 0-1 .54-1 1.2 0 .933-.267.933-1.2 0-1.667-1.667-6.926-1.501-9.498.301m26.038.055c-.964 2.513.53 10.643 2.32 12.621 2.179 2.408 6.844 2.319 9.34-.177 1.556-1.556 2-3.333 2-8 0-3.333-.444-6-1-6-.55 0-1 2.15-1 4.777 0 4.962-2.072 9.223-4.485 9.223-2.899 0-4.515-3.069-4.515-8.571 0-5.206-1.378-7.213-2.66-3.873m16.66 6.645c0 5.925.32 7.86 1.25 7.554.731-.24 1.458-2.871 1.75-6.333.416-4.924.879-6.088 2.75-6.909 3.393-1.489 2.714-2.394-1.75-2.332l-4 .055zm11.157-5.869c-3.154 3.358-2.925 8.919.478 11.595 2.821 2.22 7.815 2.772 8.919.986.484-.783.976-.783 1.759 0 2.186 2.186 2.687.929 2.687-6.734v-7.821l-5.843-.161c-4.922-.136-6.182.201-8 2.135m41.579-1.082c-2.169 1.647-3.839 6.282-3.059 8.491 2.117 5.996 8.903 8.162 13.157 4.199 3.011-2.805 1.685-4.493-1.539-1.958-3.223 2.536-4.773 2.54-7.295.018-3.25-3.25-2.407-4 4.5-4 5.833 0 6.5-.205 6.5-2 0-4.813-8.067-7.937-12.264-4.75m36.246 1.5c-4.083 5.191-.491 13.25 5.906 13.25 3.169 0 7.112-2.526 7.112-4.557 0-1.935-.623-1.82-3 .557-2.491 2.491-5.189 2.554-7.345.171-3.016-3.332-2.042-4.171 4.845-4.171 7.246 0 7.964-.87 4.427-5.365-2.973-3.78-8.926-3.723-11.945.115m16.372-1.229c-.955 2.488.157 13.824 1.396 14.233.892.294 1.25-1.064 1.25-4.736 0-5.698 1.301-9.018 3.535-9.018.806 0 1.465-.436 1.465-.97 0-1.39-7.1-.934-7.646.491m10.719 1.114c-5.602 7.122 2.06 16.575 9.993 12.33 1.333-.714 1.934-.714 1.934 0 0 .569.45 1.035 1 1.035.583 0 1-3.333 1-8s-.417-8-1-8c-.55 0-1 .466-1 1.035 0 .714-.601.714-1.934 0-3.554-1.902-7.77-1.227-9.993 1.6m-200.502.936C32.244 235.899 34.802 243 39.329 243c2.297 0 5.671-3.57 5.671-6 0-2.545-3.414-6-5.929-6-1.06 0-2.635.707-3.5 1.571m43.084.258C75.332 236.5 77.932 243 82.723 243c1.966 0 5.277-3.764 5.277-6 0-2.509-3.401-6-5.845-6-1.015 0-2.59.823-3.5 1.829M133 233c-1.1 1.1-2 2.9-2 4 0 2.509 3.401 6 5.845 6 4.378 0 6.842-7.17 3.584-10.429-2.141-2.14-5.027-1.973-7.429.429m40.5 0c-1.788 1.975-1.747 2 3.345 2 5.226 0 6.121-.634 3.955-2.8-1.818-1.818-5.274-1.439-7.3.8m19.685-1.316c-2.191.876-3.265 5.046-2.01 7.801 3.114 6.833 12.556 2.198 9.877-4.849-1.207-3.174-4.357-4.356-7.867-2.952m18.199 1.066c-1.677 1.668-1.535 1.764 3.036 2.059 5.566.359 6.869-.393 4.137-2.391-2.599-1.9-5.043-1.787-7.173.332m27.187-.179c-3.327 3.328-.769 10.429 3.758 10.429 2.297 0 5.671-3.57 5.671-6 0-2.545-3.414-6-5.929-6-1.06 0-2.635.707-3.5 1.571"/><path fill="#1976D2" fill-opacity=".517" fill-rule="evenodd" d="M66.951 12.004C45.143 15.44 27.139 31.341 19.4 54c-2.627 7.692-2.627 25.308 0 33 3.358 9.831 7.498 16.855 13.997 23.743C45.241 123.296 59.203 129.415 76 129.415c19.32 0 36.433-8.488 47.546-23.585 2.45-3.327 4.454-6.451 4.454-6.94 0-.49-2.664-.89-5.92-.89-5.889 0-5.951.031-11.804 5.884-9.611 9.611-20.529 14.083-34.437 14.104-23.321.036-43.27-17.232-46.851-40.554-4.354-28.356 18.125-54.467 46.851-54.422 13.908.021 24.826 4.493 34.437 14.104C116.129 42.969 116.191 43 122.08 43c3.256 0 5.92-.4 5.92-.89 0-.489-2.004-3.613-4.454-6.94-4.561-6.196-11.643-12.413-18.937-16.623-9.534-5.503-26.05-8.373-37.658-6.543M164 66.488V122h11V79h51V67h-51V23.028l31.25-.264 31.25-.264v-11l-36.75-.262-36.75-.263zM93 73v6h52.136l-.352 35.75c-.391 39.834-.323 39.405-7.557 47.429-11.901 13.202-31.34 11.058-40.187-4.433-1.611-2.82-3.218-6.842-3.572-8.937L92.824 145h-5.245c-2.885 0-5.485.239-5.777.532-.293.292-.143 2.614.333 5.159 3.01 16.112 16.1 29.156 31.332 31.223 16.425 2.229 31.509-6.2 38.859-21.713l3.174-6.701.29-43.25.29-43.25H93zM43.284 196.692c-1.219.241-3.356 1.793-4.75 3.45-7.486 8.897 2.318 21.344 12.869 16.337 1.978-.939 3.597-2.106 3.597-2.593 0-1.184-.295-1.134-3.636.608-6.754 3.523-13.268-.217-13.332-7.655-.025-2.882.623-4.212 3.045-6.25 3.551-2.988 5.81-3.216 10.066-1.015 3.548 1.835 4.635 1.422 2.113-.802-1.988-1.754-6.673-2.731-9.972-2.08M123 197.5c0 .917.484 1.505 1.075 1.308.591-.197 1.075-.786 1.075-1.308s-.484-1.111-1.075-1.308c-.591-.197-1.075.391-1.075 1.308m45 2.535c0 3.68-.17 3.944-1.934 3-6.911-3.698-13.82 3.951-10.005 11.079 1.656 3.095 5.634 4.185 9.05 2.48 1.589-.792 2.889-1.025 2.889-.517 0 .507.45.923 1 .923.603 0 1-4.167 1-10.5s-.397-10.5-1-10.5c-.55 0-1 1.816-1 4.035m32 6.465c0 6.333.397 10.5 1 10.5s1-4.167 1-10.5-.397-10.5-1-10.5-1 4.167-1 10.5m-137.771-3.831c-.699.282-1.946 1.817-2.771 3.413-4.268 8.252 6.244 15.454 12.293 8.422 5.446-6.332-1.559-15.039-9.522-11.835m15.453-.017C76.591 203.742 76.885 217 78 217c.55 0 1-1.925 1-4.277 0-5.563 2.314-8.939 5.847-8.53 2.518.291 2.668.626 2.951 6.557.163 3.438.726 6.25 1.25 6.25 1.284 0 1.217-10.637-.083-13.066-1.185-2.213-5.87-2.629-7.807-.692-.988.988-1.399.985-2.018-.015-.427-.692-1.083-.95-1.458-.575m17.031-.031c-1.637 1.636-.524 5.049 2.44 7.486 4.145 3.407 3.432 6.4-1.277 5.366-1.966-.432-2.9-.321-2.517.299 1.181 1.91 4.654 2.038 6.859.253 1.912-1.549 2.055-2.131 1.057-4.321-.634-1.392-2.039-2.812-3.122-3.155-1.082-.344-2.227-1.3-2.544-2.125-.666-1.736 1.654-2.921 3.975-2.03 1.003.385 1.433.15 1.172-.643-.459-1.399-4.938-2.236-6.043-1.13M107 204c-3.641 3.641-2.17 11.224 2.523 13.009 2.835 1.078 8.044-.438 8.865-2.579.696-1.813-.346-1.776-2.829.102-2.513 1.901-5.021 1.864-6.988-.103-3.265-3.266-1.972-4.429 4.929-4.429 7.246 0 7.964-.87 4.427-5.365-2.597-3.302-7.949-3.613-10.927-.635m16 7.417c0 6.628-.37 9.549-1.25 9.863-.687.245-.932.788-.543 1.207.389.418 1.401.494 2.25.168 1.249-.479 1.543-2.505 1.543-10.624 0-6.021-.4-10.031-1-10.031-.596 0-1 3.806-1 9.417m8-7.417c-2.716 2.716-2.709 9.049.013 11.512 3.043 2.754 7.852 2.347 10.645-.901 3.014-3.504 2.974-7.07-.113-10.156-3.03-3.031-7.765-3.235-10.545-.455m45.174.314c-3.983 4.241-2.087 11.738 3.311 13.093 2.662.668 8.515-1.692 8.515-3.433 0-1.355-1.161-1.167-3.441.558-2.604 1.97-4.904 1.849-6.904-.361-3.016-3.332-2.042-4.171 4.845-4.171 7.246 0 7.964-.87 4.427-5.365-2.709-3.444-7.679-3.592-10.753-.321m31.737-.443c-1.626 1.317-2.311 2.919-2.311 5.407 0 6.264 5.269 9.932 10.511 7.316 1.589-.792 2.889-1.025 2.889-.517 0 .507.45.923 1 .923.578 0 1-3.167 1-7.5 0-6.734-1.057-9.617-2.292-6.25-.366 1-.723 1-1.783 0-1.94-1.83-6.363-1.525-9.014.621m-146.498 2.622c-3.391 5.175 1.518 11.226 7.059 8.702C73.944 212.702 72.022 204 66 204c-2.045 0-3.456.767-4.587 2.493m46.567-.969c-1.824 2.198-.867 2.627 5.096 2.282 5.049-.292 5.216-.388 3.54-2.056-2.166-2.155-6.931-2.28-8.636-.226m23.46.927c-2.488 3.797.302 9.549 4.631 9.549 2.653 0 5.929-3.507 5.929-6.345 0-5.39-7.614-7.7-10.56-3.204m26.557-.948c-1.791 2.159-1.536 6.244.533 8.53 4.907 5.423 12.018-1.404 8.435-8.099-1.27-2.372-7.123-2.653-8.968-.431m18.983.021c-1.824 2.198-.867 2.627 5.096 2.282 5.049-.292 5.216-.388 3.54-2.056-2.166-2.155-6.931-2.28-8.636-.226m31.577.699c-.856 1.222-1.557 3.022-1.557 4 0 2.386 3.521 5.777 6 5.777 2.714 0 6-3.475 6-6.345 0-5.217-7.473-7.674-10.443-3.432M45 227.596c0 4.503-.082 4.64-1.829 3.059-5.852-5.296-15.096 3.232-10.728 9.898 2.638 4.026 6.18 5.2 9.662 3.202 1.592-.914 2.895-1.233 2.895-.708 0 .524.45.953 1 .953.6 0 1-3.98 1-9.941 0-5.549-.442-10.214-1-10.559-.613-.379-1 1.208-1 4.096m5.694-3.957c-.799.799.104 2.361 1.365 2.361.518 0 .941-.675.941-1.5 0-1.546-1.18-1.987-2.306-.861M202 227.596c0 4.503-.082 4.64-1.829 3.059-3.745-3.39-10.332-1.135-11.614 3.975-.957 3.812 1.106 7.988 4.678 9.467 2.597 1.076 3.496 1.02 5.914-.368 1.568-.9 2.851-1.207 2.851-.682 0 .524.45.953 1 .953.6 0 1-3.98 1-9.941 0-5.549-.442-10.214-1-10.559-.613-.379-1 1.208-1 4.096M8 233.031c0 7.432-.289 9.143-1.632 9.658-.898.345-2.452.115-3.454-.511-1.081-.675-2.055-.759-2.396-.208-.642 1.04 2.54 3.03 4.845 3.03C8.895 245 10 242.123 10 232.929c0-5.286-.408-8.929-1-8.929-.593 0-1 3.677-1 9.031m88-6.614c0 1.329-.562 2.679-1.25 3-1 .466-1 .7 0 1.166.81.378 1.25 2.845 1.25 7 0 3.611.437 6.417 1 6.417.564 0 1-2.833 1-6.5 0-5.111.321-6.5 1.5-6.5.825 0 1.5-.45 1.5-1s-.675-1-1.5-1c-.933 0-1.5-.944-1.5-2.5 0-1.375-.45-2.5-1-2.5s-1 1.088-1 2.417M157 234c0 6 .4 10 1 10 .55 0 1-2.25 1-5v-5h4c2.2 0 4-.45 4-1s-1.8-1-4-1c-3.778 0-4-.167-4-3s.222-3 4-3c2.2 0 4-.45 4-1s-2.25-1-5-1h-5zm97 0c0 6 .4 10 1 10s1-4 1-10-.4-10-1-10-1 4-1 10m-238.853 1.193c-.129 5.874.125 6.884 2.076 8.25 5.25 3.678 9.618.52 10.45-7.556.378-3.667.188-5.855-.547-6.309-.767-.474-1.13.677-1.14 3.613-.02 6.426-.93 8.757-3.69 9.45-3.653.916-5.675-1.747-6.389-8.417l-.613-5.724zM51 236.5c0 4.333.422 7.5 1 7.5.578 0 1-3.167 1-7.5s-.422-7.5-1-7.5c-.578 0-1 3.167-1 7.5m8.913-6.218c-1.993 1.53-3.913 5.077-3.913 7.229 0 2.516 5.52 7.489 8.312 7.489 1.357 0 3.529-.938 4.827-2.084 2.046-1.805 2.094-1.987.361-1.358-4.815 1.745-7.319 1.623-9.401-.459-2.498-2.498-2.66-4.853-.542-7.876 1.729-2.47 7.182-3.084 9.226-1.04.651.651 1.528.839 1.949.419 1.238-1.238-2.855-3.605-6.173-3.57-1.683.017-3.773.58-4.646 1.25m17.261 1.032c-3.171 3.376-2.951 8.93.461 11.613 3.148 2.477 5.161 2.605 8.142.516 1.246-.872 2.223-1.092 2.223-.5 0 .581.45 1.057 1 1.057.578 0 1-3.167 1-7.5s-.422-7.5-1-7.5c-.55 0-1 .466-1 1.035 0 .714-.601.714-1.934 0-3.148-1.684-6.57-1.192-8.892 1.279M104 234.941c0 4.726.44 6.499 2 8.059 4.878 4.878 11 .383 11-8.076 0-2.643-.45-5.084-1-5.424-.617-.381-1 1.345-1 4.507 0 6.232-1.331 8.993-4.335 8.993-3.488 0-4.665-1.928-4.665-7.641 0-2.883-.45-5.519-1-5.859-.625-.386-1 1.656-1 5.441m16.729-5.337c-1.123 1.123-.873 14.396.271 14.396.55 0 1.006-1.687 1.014-3.75.021-5.836 1.037-8.315 3.873-9.446 1.437-.573 2.075-1.243 1.418-1.488-.657-.245-2.083.03-3.169.611-1.384.741-2.08.741-2.326.003-.193-.58-.68-.727-1.081-.326m10.726 1.851c-6.321 6.32 1.64 16.989 9.052 12.132 1.371-.898 2.493-1.173 2.493-.61 0 .563.45 1.023 1 1.023.571 0 1-2.98 1-6.941 0-3.818-.45-7.219-1-7.559-.55-.34-1 .109-1 .998 0 1.47-.201 1.475-2.223.059-3.196-2.239-6.504-1.921-9.322.898m41 0C170.907 233.002 170 235.052 170 237c0 3.772 3.881 8 7.344 8 2.693 0 7.562-3.42 6.454-4.533-.387-.388-1.431.023-2.322.914-3.06 3.06-9.476 1.061-9.476-2.952 0-1.092 1.533-1.429 6.5-1.429 5.196 0 6.5-.31 6.5-1.545 0-2.448-4.657-6.455-7.5-6.455-1.425 0-3.695 1.105-5.045 2.455m37.734-.416c-3.495 3.255-3.264 8.397.529 11.803 2.865 2.574 7.448 2.421 10.209-.341 2.078-2.077.454-3.156-1.75-1.162-3.222 2.917-8.049 1.602-9.506-2.589-.542-1.558.162-1.75 6.428-1.75 6.824 0 7.016-.068 6.381-2.25-1.591-5.472-8.245-7.481-12.291-3.711M226 236.378c0 8.863 1.757 10.359 2.2 1.872.253-4.851.652-5.904 2.55-6.737 1.238-.543 2.25-1.331 2.25-1.75 0-1.144-2.786-.919-3.53.286-.443.716-1.094.678-2.059-.123-1.194-.991-1.411.003-1.411 6.452m11.267-5.412c-1.161 1.082-2.399 2.874-2.751 3.984-.883 2.78 1.428 7.168 4.746 9.014 2.51 1.396 3.033 1.381 5.75-.167 1.643-.937 2.988-1.275 2.988-.75 0 .524.45.953 1 .953.578 0 1-3.167 1-7.5s-.422-7.5-1-7.5c-.55 0-1 .745-1 1.655 0 1.54-.127 1.54-1.829 0-2.458-2.224-6.328-2.089-8.904.311m-202.71 2.257c-2.095 2.991-1.96 5.374.443 7.777 3.908 3.908 10 1.365 10-4.174 0-5.367-7.416-7.926-10.443-3.603m43.399-.67c-3.318 3.998-.491 10.447 4.58 10.447 4.652 0 7.28-7.041 3.893-10.429-2.016-2.015-6.807-2.025-8.473-.018m54.699.276c-5.262 5.814 2.804 13.712 8.345 8.171 2.403-2.403 2.538-4.786.443-7.777-1.922-2.745-6.476-2.949-8.788-.394m40.727-.079c-1.68 1.67-1.638 1.764.911 2.065 1.469.173 4.115.173 5.879 0 3.059-.3 3.126-.396 1.446-2.065-.968-.963-2.822-1.75-4.118-1.75-1.296 0-3.15.787-4.118 1.75m18.175.473c-.856 1.222-1.557 2.922-1.557 3.777s.701 2.555 1.557 3.777c3.147 4.494 10.443 1.733 10.443-3.951 0-5.367-7.416-7.926-10.443-3.603M211.2 232.2c-2.2 2.2-1.246 2.8 4.455 2.8 5.592 0 5.635-.022 3.845-2-2.011-2.222-6.45-2.65-8.3-.8m26.357 1.023c-2.095 2.991-1.96 5.374.443 7.777 3.908 3.908 10 1.365 10-4.174 0-5.367-7.416-7.926-10.443-3.603"/><path fill="#1976D2" fill-opacity=".714" fill-rule="evenodd" d="M60.5 13.87C41.468 19.348 26.868 33.421 20.424 52.5c-5.511 16.315-2.948 35.29 6.795 50.309 7.518 11.589 20.817 21.095 34.425 24.606 3.38.872 9.923 1.585 14.54 1.585 15.871 0 28.731-5.126 40.205-16.024 3.92-3.724 8.165-8.617 9.433-10.873L128.128 98h-11.986l-5.611 5.882c-29.817 31.26-82.619 9.388-82.519-34.181.067-29.282 28.866-52.461 57.614-46.37 9.628 2.04 16.621 5.779 23.929 12.798 5.99 5.751 6.231 5.871 11.78 5.871 3.116 0 5.665-.382 5.665-.85 0-1.725-5.843-8.812-11.811-14.326-6.766-6.252-15.505-10.968-24.649-13.302-7.903-2.018-22.405-1.85-30.04.348M164 66.5V121h11V78h51V68h-51V22h62V12h-73zM94 73v5h51l-.006 34.75c-.003 20.566-.422 36.251-1.027 38.427-1.631 5.874-7.042 13.003-12.348 16.269-6.05 3.723-15.859 4.669-21.891 2.109-7.985-3.388-16.689-14.48-16.718-21.305-.009-2.066-.471-2.25-5.638-2.25h-5.628l.667 4.25c1.808 11.533 10.879 23.652 21.393 28.58 4.92 2.306 6.99 2.67 15.196 2.67 8.449 0 10.109-.312 15-2.816 6.432-3.293 13.091-9.472 16.537-15.344 5.077-8.649 5.463-12.579 5.463-55.55V68H94zm29.543 123.931c-.317.512-.118 1.213.441 1.559.559.345 1.016-.074 1.016-.931 0-1.757-.6-2.015-1.457-.628m-84.048 2.483c-4.482 4.482-4.482 10.69 0 15.172 3.13 3.13 10.148 3.36 13.644.447 2.72-2.266 1.334-2.706-1.58-.501-4.592 3.473-12.772.367-13.847-5.259-.666-3.481 1.482-8.771 4.138-10.193 2.847-1.523 7.423-1.341 9.709.388 2.914 2.205 4.3 1.765 1.58-.501-3.496-2.913-10.514-2.683-13.644.447M169 201c0 4.213-.933 4.99-3 2.5-1.865-2.248-5.781-1.81-8.545.955-6.149 6.148 1.04 15.561 8.738 11.442 1.583-.847 2.26-.789 2.919.25.509.804.864-2.808.873-8.897.008-5.637-.21-10.25-.485-10.25s-.5 1.8-.5 4m31 6c0 6 .4 10 1 10s1-4 1-10-.4-10-1-10-1 4-1 10m-138.365-2.927C56.351 208.229 59.313 217 66 217s9.649-8.771 4.365-12.927C68.916 202.933 66.952 202 66 202c-.952 0-2.916.933-4.365 2.073m16.628 5.427c.03 7.765.049 7.828.654 2.155.437-4.108 1.193-6.262 2.544-7.25 4.405-3.221 6.893-1.003 7.636 6.808l.598 6.287.153-5.527c.237-8.597-3.328-12.127-8.551-8.468-1.947 1.363-2.191 1.34-2.607-.25-.252-.965-.444 1.845-.427 6.245m16.777-6.048c-1.653 1.991-.517 4.955 2.521 6.581 3.479 1.862 2.989 5.48-.736 5.433-1.472-.018-2.458.319-2.191.75.992 1.606 5.316.746 6.396-1.272.946-1.768.583-2.529-2.595-5.44-4.387-4.018-4.221-7.135.324-6.08 2.035.473 2.355.375 1.241-.378-2.086-1.412-3.551-1.292-4.96.406m12.415 1.003c-3.019 3.018-3.194 7.375-.416 10.356 2.639 2.833 7.981 2.929 10.461.189 2.091-2.31 1.1-2.743-1.143-.5-2.27 2.27-6.975 1.884-8.8-.723-.856-1.222-1.557-2.572-1.557-3 0-.427 2.925-.777 6.5-.777 5.833 0 6.5-.205 6.5-2 0-2.788-3.504-6-6.545-6-1.4 0-3.65 1.105-5 2.455m16.749 6.224c-.151 6.804-.611 9.585-1.775 10.75-1.413 1.412-1.415 1.571-.019 1.571 2.167 0 2.734-3.154 2.339-13l-.342-8.5zm7.251-6.224c-4.93 4.93-1.962 12.545 4.89 12.545 4.275 0 6.655-2.608 6.655-7.29 0-6.949-6.77-10.031-11.545-5.255m45 0c-3 2.999-3.132 6.415-.382 9.91 2.666 3.39 7.765 3.61 10.522.454l1.905-2.181-2.473 1.681c-3.494 2.376-7.591 2.142-9.47-.542-.856-1.222-1.557-2.55-1.557-2.952 0-.401 2.808-.864 6.24-1.027 7.029-.336 8.487-2.071 4.821-5.737-2.759-2.759-6.611-2.602-9.606.394m32.18-.382c-5.19 4.082-2.341 12.927 4.165 12.927 1.54 0 3.359-.559 4.042-1.242.988-.988 1.433-.938 2.184.25.637 1.008.923-.943.88-6.008-.035-4.125-.291-6.938-.568-6.251-.388.962-.995.904-2.643-.25-2.899-2.031-4.934-1.886-8.06.574M62 205c-2.499 2.499-2.584 7.161-.171 9.345 4.024 3.642 10.171.817 10.171-4.674 0-3.15-3.167-6.671-6-6.671-1.1 0-2.9.9-4 2m46.655-.171c-2.906 3.211-2.022 4.171 3.845 4.171 6.092 0 7.294-1.63 3.277-4.443-2.925-2.05-5.096-1.967-7.122.272m23.98.244c-4.556 3.583-2.36 10.927 3.267 10.927 5.554 0 8.145-6.953 4.098-11-2.533-2.533-4.071-2.518-7.365.073m25.82.382c-2.976 2.975-3.13 5.87-.455 8.545 3.706 3.706 9.285 2.012 10.541-3.2.504-2.093.078-3.272-1.9-5.25-3.191-3.191-5.069-3.213-8.186-.095m19.768-.898c-4.017 2.813-2.815 4.443 3.277 4.443 4.126 0 5.5-.361 5.5-1.443 0-1.509-3.679-4.557-5.5-4.557-.58 0-2.055.701-3.277 1.557M209 205c-4.074 4.074-1.447 11 4.174 11 5.477 0 8.091-8.3 3.603-11.443-2.991-2.095-5.374-1.96-7.777.443M8.488 225.25c-.247.688-.57 4.85-.718 9.25l-.27 8-3.5-.173c-3.255-.16-3.364-.073-1.559 1.25C4.99 245.445 5.62 245.38 8 243c1.686-1.686 2-3.333 2-10.5 0-7.972-.46-10.178-1.512-7.25M45 228.057c0 3.992-.035 4.032-2.223 2.5-2.981-2.089-4.994-1.961-8.142.516-3.069 2.414-3.549 7.177-1.078 10.704 1.154 1.649 2.56 2.223 5.441 2.223 2.136 0 4.136-.407 4.443-.905.316-.51-1.079-.685-3.196-.401-2.914.391-4.164.053-5.575-1.507-2.468-2.726-1.802-7.02 1.465-9.448 2.358-1.752 2.937-1.813 5.5-.58 2.597 1.25 2.869 1.864 2.913 6.574.026 2.858.364 5.512.75 5.898.386.386.702-3.873.702-9.464 0-5.592-.225-10.167-.5-10.167s-.5 1.826-.5 4.057M51 225c0 .55.45 1 1 1s1-.45 1-1-.45-1-1-1-1 .45-1 1m45 1.917c0 1.604-.562 3.143-1.25 3.421-1 .403-1 .52 0 .583.864.055 1.25 2.088 1.25 6.579 0 3.667.436 6.5 1 6.5.563 0 1-2.809 1-6.427 0-5.279.312-6.508 1.75-6.884 1.667-.435 1.667-.463 0-.573-1.252-.083-1.75-.97-1.75-3.116 0-1.65-.45-3-1-3s-1 1.313-1 2.917m61.667-2.25C156.573 225.76 156.888 244 158 244c.55 0 1-2.224 1-4.943v-4.942l4.25-.383 4.25-.383-4.25-.174c-4.157-.171-4.25-.251-4.25-3.675 0-3.417.095-3.5 4-3.5 2.2 0 4-.45 4-1 0-1.103-8.268-1.398-9.333-.333m44.193 3.583c-.077 2.338-.044 5.873.072 7.857.254 4.33-1.92 6.893-5.848 6.893-4.616 0-7.841-5.822-5.319-9.6 1.518-2.273 5.16-3.51 7.169-2.435 2.838 1.518 3.871 1.202 1.625-.497-2.655-2.008-4.813-1.843-7.924.605-3.254 2.559-3.69 8.662-.806 11.272 1.995 1.806 6.807 2.17 9.145.692.971-.614 1.732-.524 2.234.266.419.658.768-3.416.777-9.053.008-5.637-.21-10.25-.485-10.25s-.563 1.912-.64 4.25m52.51 5.75c0 5.775.165 8.137.367 5.25.202-2.887.202-7.613 0-10.5-.202-2.887-.367-.525-.367 5.25M62 229.689c-5.077 1.937-6.914 9.269-3.171 12.656 2.321 2.101 9.473 2.2 11.171.155.785-.946.852-1.5.181-1.5-.584 0-1.341.45-1.681 1-.34.55-2.097 1-3.904 1-7.801 0-9.129-10.109-1.64-12.486 1.069-.339 3.429.13 5.244 1.043 2.778 1.398 3.063 1.417 1.8.118-1.744-1.794-5.839-2.811-8-1.986m17.315.318c-4.46 1.797-5.763 8.545-2.315 11.993 2.261 2.261 7.904 2.696 9.842.758.988-.988 1.433-.938 2.184.25.64 1.012.943-.922.943-6.008 0-4.677-.329-6.98-.875-6.117-.735 1.159-1.254 1.119-3.208-.25-2.599-1.821-3.413-1.898-6.571-.626m44.646.54c-1.026 1.236-1.45 1.287-2.107.25-.467-.736-.766 1.947-.692 6.203.132 7.492.133 7.494.735 1.904.6-5.571 2.527-9.378 4.216-8.334.488.301.887.071.887-.511 0-1.545-1.56-1.294-3.039.488m8.428.795c-5.19 4.464-2.558 12.658 4.066 12.658 1.73 0 3.704-.559 4.387-1.242.988-.988 1.433-.938 2.184.25.637 1.008.923-.943.88-6.008-.035-4.125-.278-6.977-.539-6.337-.349.854-1.191.789-3.171-.244-3.665-1.912-4.646-1.796-7.807.923m41.853-1.308c-4.469 1.796-5.394 8.671-1.669 12.396 2.024 2.024 7.831 2.023 9.856-.001 2.191-2.192 1.974-3.104-.258-1.084-2.681 2.427-7.725 2.129-9.614-.568-.856-1.222-1.557-2.572-1.557-3 0-.427 3.15-.777 7-.777s7-.247 7-.55c0-1.982-3.302-6.298-5.21-6.809-2.76-.74-2.722-.742-5.548.393m36.213 1.421c-2.832 2.831-3.198 7.04-.898 10.322 2.073 2.96 8.351 3.088 10.943.223 2.091-2.31 1.1-2.743-1.143-.5-2.059 2.059-6.699 1.884-8.702-.329-3.016-3.332-2.042-4.171 4.845-4.171 5.752 0 6.5-.222 6.5-1.927 0-2.29-4.473-6.073-7.18-6.073-1.051 0-3.015 1.105-4.365 2.455m19.287-1.37c-.967.563-2.204.747-2.75.41-.626-.387-.944 2.086-.861 6.696l.131 7.309.722-5.608c.818-6.353 1.515-7.892 3.575-7.892.793 0 1.441-.45 1.441-1 0-1.207-.043-1.205-2.258.085m7.893.988c-3.069 2.414-3.549 7.177-1.078 10.704 1.154 1.649 2.56 2.223 5.441 2.223 2.136 0 4.192-.498 4.568-1.107.483-.782.915-.733 1.47.166.442.715.935-1.867 1.125-5.896.187-3.942.001-7.166-.411-7.165-.412.001-.75.478-.75 1.059 0 .592-.977.372-2.223-.5-2.981-2.089-4.994-1.961-8.142.516m-222.488 3.743C14.944 242.147 16.125 244 21 244c4.937 0 6.239-2.107 5.736-9.28l-.366-5.22-.185 5.55c-.208 6.244-1.351 7.95-5.326 7.95-3.46 0-4.191-1.18-4.951-8l-.614-5.5zM51.336 237c0 4.125.177 5.813.392 3.75.216-2.062.216-5.437 0-7.5-.215-2.062-.392-.375-.392 3.75m27.321-4.945C73.785 235.887 76.283 243 82.5 243c5.589 0 8.332-5.66 4.75-9.802-2.712-3.137-5.574-3.518-8.593-1.143m25.474 2.472c-.168 6.465 1.808 9.473 6.226 9.473 4.684 0 5.67-1.525 5.458-8.45l-.185-6.05-.375 5.47c-.441 6.436-1.497 8.03-5.318 8.03-3.5 0-4.05-.876-4.953-7.892l-.722-5.608zM134 231.288c-1.852.932-2.578 2.191-2.803 4.861-.364 4.326 1.744 6.851 5.719 6.851 5.932 0 8.201-7.189 3.449-10.927-3.079-2.422-3.106-2.426-6.365-.785m40.219.271C170.206 234.37 171.41 236 177.5 236c4.005 0 5.5-.374 5.5-1.378 0-3.265-5.669-5.243-8.781-3.063m37.438.496c-1.461 1.15-2.657 2.507-2.657 3.018 0 .51 2.7.927 6 .927 6.184 0 6.894-.48 4.75-3.208-2.144-2.727-5.208-3.006-8.093-.737m27 0c-6.545 5.149-.015 13.883 7.409 9.91 2.257-1.208 2.74-8.075.684-9.72-2.763-2.211-5.444-2.274-8.093-.19"/></svg>